<svg width="147" height="67" viewBox="0 0 147 67" fill="none" xmlns="http://www.w3.org/2000/svg">
<path d="M3.03409 46V11.0909H16.8068C19.4545 11.0909 21.7102 11.5966 23.5739 12.608C25.4375 13.608 26.858 15 27.8352 16.7841C28.8239 18.5568 29.3182 20.6023 29.3182 22.9205C29.3182 25.2386 28.8182 27.2841 27.8182 29.0568C26.8182 30.8295 25.3693 32.2102 23.4716 33.1989C21.5852 34.1875 19.3011 34.6818 16.6193 34.6818H7.84091V28.767H15.4261C16.8466 28.767 18.017 28.5227 18.9375 28.0341C19.8693 27.5341 20.5625 26.8466 21.017 25.9716C21.483 25.0852 21.7159 24.0682 21.7159 22.9205C21.7159 21.7614 21.483 20.75 21.017 19.8864C20.5625 19.0114 19.8693 18.3352 18.9375 17.858C18.0057 17.3693 16.8239 17.125 15.392 17.125H10.4148V46H3.03409ZM36.098 46H28.1889L40.2401 11.0909H49.7514L61.7855 46H53.8764L45.1321 19.0682H44.8594L36.098 46ZM35.6037 32.2784H54.2855V38.0398H35.6037V32.2784ZM84.1278 21.1307C83.9915 19.7557 83.4063 18.6875 82.3722 17.9261C81.3381 17.1648 79.9347 16.7841 78.1619 16.7841C76.9574 16.7841 75.9403 16.9545 75.1108 17.2955C74.2813 17.625 73.6449 18.0852 73.2017 18.6761C72.7699 19.267 72.554 19.9375 72.554 20.6875C72.5313 21.3125 72.6619 21.858 72.946 22.3239C73.2415 22.7898 73.6449 23.1932 74.1562 23.5341C74.6676 23.8636 75.2585 24.1534 75.929 24.4034C76.5994 24.642 77.3153 24.8466 78.0767 25.017L81.2131 25.767C82.7358 26.108 84.1335 26.5625 85.4062 27.1307C86.679 27.6989 87.7813 28.3977 88.7131 29.2273C89.6449 30.0568 90.3665 31.0341 90.8778 32.1591C91.4006 33.2841 91.6676 34.5739 91.679 36.0284C91.6676 38.1648 91.1222 40.017 90.0426 41.5852C88.9744 43.142 87.429 44.3523 85.4062 45.2159C83.3949 46.0682 80.9688 46.4943 78.1278 46.4943C75.3097 46.4943 72.8551 46.0625 70.7642 45.1989C68.6847 44.3352 67.0597 43.0568 65.8892 41.3636C64.7301 39.6591 64.1222 37.5511 64.0653 35.0398H71.2074C71.2869 36.2102 71.6222 37.1875 72.2131 37.9716C72.8153 38.7443 73.6165 39.3295 74.6165 39.7273C75.6278 40.1136 76.7699 40.3068 78.0426 40.3068C79.2926 40.3068 80.3778 40.125 81.2983 39.7614C82.2301 39.3977 82.9517 38.892 83.4631 38.2443C83.9744 37.5966 84.2301 36.8523 84.2301 36.0114C84.2301 35.2273 83.9972 34.5682 83.5312 34.0341C83.0767 33.5 82.4063 33.0455 81.5199 32.6705C80.6449 32.2955 79.571 31.9545 78.2983 31.6477L74.4972 30.6932C71.554 29.9773 69.2301 28.858 67.5256 27.3352C65.821 25.8125 64.9744 23.7614 64.9858 21.1818C64.9744 19.0682 65.5369 17.2216 66.6733 15.642C67.821 14.0625 69.3949 12.8295 71.3949 11.9432C73.3949 11.0568 75.6676 10.6136 78.2131 10.6136C80.804 10.6136 83.0653 11.0568 84.9972 11.9432C86.9403 12.8295 88.4517 14.0625 89.5312 15.642C90.6108 17.2216 91.1676 19.0511 91.2017 21.1307H84.1278ZM104.024 11.0909V46H96.6435V11.0909H104.024ZM142.176 28.5455C142.176 32.3523 141.455 35.5909 140.011 38.2614C138.58 40.9318 136.625 42.9716 134.148 44.3807C131.682 45.7784 128.909 46.4773 125.83 46.4773C122.727 46.4773 119.943 45.7727 117.477 44.3636C115.011 42.9545 113.063 40.9148 111.631 38.2443C110.199 35.5739 109.483 32.3409 109.483 28.5455C109.483 24.7386 110.199 21.5 111.631 18.8295C113.063 16.1591 115.011 14.125 117.477 12.7273C119.943 11.3182 122.727 10.6136 125.83 10.6136C128.909 10.6136 131.682 11.3182 134.148 12.7273C136.625 14.125 138.58 16.1591 140.011 18.8295C141.455 21.5 142.176 24.7386 142.176 28.5455ZM134.693 28.5455C134.693 26.0795 134.324 24 133.585 22.3068C132.858 20.6136 131.83 19.3295 130.5 18.4545C129.17 17.5795 127.614 17.142 125.83 17.142C124.045 17.142 122.489 17.5795 121.159 18.4545C119.83 19.3295 118.795 20.6136 118.057 22.3068C117.33 24 116.966 26.0795 116.966 28.5455C116.966 31.0114 117.33 33.0909 118.057 34.7841C118.795 36.4773 119.83 37.7614 121.159 38.6364C122.489 39.5114 124.045 39.9489 125.83 39.9489C127.614 39.9489 129.17 39.5114 130.5 38.6364C131.83 37.7614 132.858 36.4773 133.585 34.7841C134.324 33.0909 134.693 31.0114 134.693 28.5455Z" fill="#FF9200"/>
<path d="M62.2628 62H60.2855L63.2983 53.2727H65.6761L68.6847 62H66.7074L64.5213 55.267H64.4531L62.2628 62ZM62.1392 58.5696H66.8097V60.0099H62.1392V58.5696ZM75.1257 53.2727H76.9709V58.9403C76.9709 59.5767 76.8189 60.1335 76.5149 60.6108C76.2138 61.0881 75.7919 61.4602 75.2493 61.7273C74.7067 61.9915 74.0746 62.1236 73.353 62.1236C72.6286 62.1236 71.995 61.9915 71.4524 61.7273C70.9098 61.4602 70.4879 61.0881 70.1868 60.6108C69.8857 60.1335 69.7351 59.5767 69.7351 58.9403V53.2727H71.5803V58.7827C71.5803 59.1151 71.6527 59.4105 71.7976 59.669C71.9453 59.9276 72.1527 60.1307 72.4197 60.2784C72.6868 60.4261 72.9979 60.5 73.353 60.5C73.7109 60.5 74.022 60.4261 74.2862 60.2784C74.5533 60.1307 74.7592 59.9276 74.9041 59.669C75.0518 59.4105 75.1257 59.1151 75.1257 58.7827V53.2727ZM78.1566 54.794V53.2727H85.3242V54.794H82.6523V62H80.8285V54.794H78.1566ZM94.1261 57.6364C94.1261 58.5881 93.9457 59.3977 93.5849 60.0653C93.2269 60.733 92.7383 61.2429 92.119 61.5952C91.5025 61.9446 90.8093 62.1193 90.0394 62.1193C89.2638 62.1193 88.5678 61.9432 87.9513 61.5909C87.3349 61.2386 86.8477 60.7287 86.4897 60.0611C86.1317 59.3935 85.9528 58.5852 85.9528 57.6364C85.9528 56.6847 86.1317 55.875 86.4897 55.2074C86.8477 54.5398 87.3349 54.0312 87.9513 53.6818C88.5678 53.3295 89.2638 53.1534 90.0394 53.1534C90.8093 53.1534 91.5025 53.3295 92.119 53.6818C92.7383 54.0312 93.2269 54.5398 93.5849 55.2074C93.9457 55.875 94.1261 56.6847 94.1261 57.6364ZM92.2553 57.6364C92.2553 57.0199 92.163 56.5 91.9783 56.0767C91.7965 55.6534 91.5394 55.3324 91.207 55.1136C90.8746 54.8949 90.4854 54.7855 90.0394 54.7855C89.5934 54.7855 89.2042 54.8949 88.8718 55.1136C88.5394 55.3324 88.2809 55.6534 88.0962 56.0767C87.9144 56.5 87.8235 57.0199 87.8235 57.6364C87.8235 58.2528 87.9144 58.7727 88.0962 59.196C88.2809 59.6193 88.5394 59.9403 88.8718 60.1591C89.2042 60.3778 89.5934 60.4872 90.0394 60.4872C90.4854 60.4872 90.8746 60.3778 91.207 60.1591C91.5394 59.9403 91.7965 59.6193 91.9783 59.196C92.163 58.7727 92.2553 58.2528 92.2553 57.6364ZM95.4929 53.2727H97.7685L100.172 59.1364H100.274L102.678 53.2727H104.953V62H103.163V56.3196H103.091L100.832 61.9574H99.6136L97.3551 56.2983H97.2827V62H95.4929V53.2727ZM114.493 57.6364C114.493 58.5881 114.313 59.3977 113.952 60.0653C113.594 60.733 113.105 61.2429 112.486 61.5952C111.87 61.9446 111.176 62.1193 110.407 62.1193C109.631 62.1193 108.935 61.9432 108.319 61.5909C107.702 61.2386 107.215 60.7287 106.857 60.0611C106.499 59.3935 106.32 58.5852 106.32 57.6364C106.32 56.6847 106.499 55.875 106.857 55.2074C107.215 54.5398 107.702 54.0312 108.319 53.6818C108.935 53.3295 109.631 53.1534 110.407 53.1534C111.176 53.1534 111.87 53.3295 112.486 53.6818C113.105 54.0312 113.594 54.5398 113.952 55.2074C114.313 55.875 114.493 56.6847 114.493 57.6364ZM112.623 57.6364C112.623 57.0199 112.53 56.5 112.346 56.0767C112.164 55.6534 111.907 55.3324 111.574 55.1136C111.242 54.8949 110.853 54.7855 110.407 54.7855C109.961 54.7855 109.571 54.8949 109.239 55.1136C108.907 55.3324 108.648 55.6534 108.463 56.0767C108.282 56.5 108.191 57.0199 108.191 57.6364C108.191 58.2528 108.282 58.7727 108.463 59.196C108.648 59.6193 108.907 59.9403 109.239 60.1591C109.571 60.3778 109.961 60.4872 110.407 60.4872C110.853 60.4872 111.242 60.3778 111.574 60.1591C111.907 59.9403 112.164 59.6193 112.346 59.196C112.53 58.7727 112.623 58.2528 112.623 57.6364ZM115.129 54.794V53.2727H122.297V54.794H119.625V62H117.801V54.794H115.129ZM125.322 53.2727V62H123.477V53.2727H125.322ZM128.417 53.2727L130.527 59.9034H130.608L132.721 53.2727H134.767L131.758 62H129.38L126.368 53.2727H128.417ZM135.817 62V53.2727H141.698V54.794H137.662V56.8736H141.395V58.3949H137.662V60.4787H141.715V62H135.817Z" fill="#6A4B7A"/>
</svg>
