<svg width="188" height="70" viewBox="0 0 188 70" fill="none" xmlns="http://www.w3.org/2000/svg">
<g clip-path="url(#clip0_2_3)">
<path d="M79.4315 46.4784C78.292 45.4819 77.93 43.8539 77.8885 41.9817C77.8445 40.1195 78.2724 37.9044 79.632 35.0111C80.5637 33.0279 81.7718 30.8524 84.1585 27.9073C85.2711 26.5333 86.5379 25.078 88.3988 23.312C91.4702 20.3964 94.5881 18.0679 97.7207 16.1859C101.421 13.9635 103.93 12.9768 106.148 12.2689C110.481 10.8852 113.347 10.7964 115.643 11.2083C117.418 11.5265 118.636 12.2961 119.773 13.1372C120.976 14.0301 121.399 15.5298 121.759 17.0838C122.133 18.6969 121.837 20.8108 120.984 23.3391C120.24 25.5418 119.01 28.0824 116.352 31.5874C115.411 32.8306 114.283 34.1823 112.748 35.7659C109.512 39.1007 105.157 42.4899 101.296 44.6753C97.931 46.5795 95.4538 47.5884 93.3312 48.2395C88.6654 49.6726 85.6722 49.6381 83.3515 49.0264C81.5835 48.5602 80.1529 47.8153 79.4315 46.4734V46.4784ZM83.711 44.2806C84.2049 45.0477 84.7698 45.6595 85.6869 45.99C86.6014 46.318 87.4206 46.725 88.6164 46.8212C90.4945 46.9742 92.6416 46.8854 95.7864 45.9185C97.4003 45.4227 99.2515 44.6901 101.702 43.3532C105.191 41.449 109.04 38.4323 111.757 35.4872C112.76 34.3994 113.574 33.4177 114.242 32.5248C116.377 29.6585 117.345 27.5841 117.937 25.7786C119.294 21.6322 118.67 19.0052 116.978 17.1849C115.584 15.6877 113.413 14.8465 109.989 15.0439C108.026 15.1573 105.649 15.6482 102.181 17.1454C100.924 17.6881 99.496 18.3985 97.7378 19.5035C94.1088 21.7827 90.9983 24.4219 88.5626 27.2363C86.3569 29.7868 85.188 31.6713 84.3101 33.3659C82.9382 36.015 82.4687 38.013 82.4027 39.71C82.3269 41.6611 82.6179 43.3334 83.7134 44.2831L83.711 44.2806Z" fill="#CED2D9"/>
<path d="M76.4457 20.3717C77.7247 19.543 79.3851 19.654 81.1898 20.1448C82.9847 20.6307 84.9851 21.679 87.3693 23.825C89.0053 25.2976 90.744 27.0908 92.8861 30.253C93.8863 31.7256 94.9207 33.3757 96.0823 35.6894C98.0019 39.5102 99.3444 43.2076 100.259 46.7941C101.337 51.0293 101.567 53.7549 101.616 56.1179C101.709 60.7329 100.98 63.5498 99.9338 65.6711C99.1244 67.3089 98.0411 68.2783 96.9137 69.1465C95.7179 70.0666 94.1602 70.0518 92.5707 69.9605C90.92 69.8668 88.9784 68.9788 86.7995 67.4273C84.9019 66.0756 82.8184 64.1566 80.2165 60.5726C79.2946 59.3023 78.3189 57.8198 77.238 55.8737C74.9614 51.7742 72.9561 46.5672 71.9608 42.1865C71.0927 38.3657 70.8311 35.6647 70.8091 33.4152C70.7626 28.4622 71.6454 25.5566 72.8901 23.4698C73.8389 21.8813 74.9565 20.6973 76.4482 20.3742L76.4457 20.3717ZM77.3334 25.1668C76.4604 25.4283 75.7121 25.8082 75.135 26.6073C74.5603 27.4041 73.9392 28.0898 73.5063 29.2244C72.8265 31.0102 72.3008 33.1266 72.335 36.4664C72.3521 38.1807 72.5282 40.1934 73.1126 42.9585C73.9465 46.8977 75.7414 51.5053 77.7907 54.9882C78.5463 56.2733 79.2555 57.3463 79.9231 58.249C82.0628 61.1424 83.7721 62.6766 85.3347 63.7644C88.9197 66.2655 91.6145 66.4012 93.835 65.2715C95.6666 64.3391 97.0873 62.462 97.8699 59.0704C98.3198 57.1267 98.5252 54.67 98.0777 50.8665C97.9163 49.4876 97.64 47.8942 97.0825 45.8691C95.9307 41.6857 94.2874 37.9069 92.2821 34.7348C90.4652 31.8612 88.9931 30.1889 87.6187 28.852C85.4717 26.7627 83.6939 25.7391 82.0848 25.1915C80.2361 24.5625 78.5536 24.3726 77.3334 25.1693V25.1668Z" fill="#CED2D9"/>
<path d="M4.81744 50.5779C4.32836 50.9726 3.55072 51.0392 2.53344 51.0392H1.84383V54.0213C1.84383 54.6799 1.83161 55.0301 1.84383 55.5555L1.5675 55.0943C1.84383 55.5777 1.84383 58.4711 1.84383 58.4711H0V41.6907H2.10794C3.04942 41.6907 3.78793 41.8658 4.32836 42.1298C4.88102 42.4159 5.33098 42.9635 5.69534 43.664C6.0597 44.4311 6.23577 45.3536 6.23577 46.4291C6.23577 47.3713 6.12329 48.1828 5.87141 48.9302C5.61953 49.6776 5.25761 50.203 4.81744 50.5754V50.5779ZM2.24488 43.3384H1.84383V49.5025H2.19597C2.72173 49.5025 3.0861 49.4803 3.3502 49.3273C3.6143 49.1966 3.82705 48.9549 4.00312 48.4714C4.17919 47.988 4.27945 47.3738 4.27945 46.6067C4.27945 45.3783 4.10338 44.589 3.81483 44.1055C3.52627 43.6221 3.03719 43.3384 2.24732 43.3384H2.24488Z" fill="#00A3E3"/>
<path d="M12.4569 58.4735C10.9896 58.4735 10.0848 57.6842 9.15802 56.1475C8.20431 54.5689 7.73969 52.5068 7.73969 49.9613C7.73969 47.4157 8.21654 45.4646 9.18247 43.9501C10.124 42.4578 11.0141 41.6907 12.4446 41.6907C13.8752 41.6907 14.7775 42.4356 15.7313 43.9057C16.7094 45.4424 17.1985 47.502 17.1985 50.0476C17.1985 52.5931 16.7339 54.5664 15.7924 56.1229C14.8754 57.6793 13.9608 58.4686 12.4544 58.4686L12.4569 58.4735ZM12.4446 43.2299C11.5032 43.2299 11.0654 43.7553 10.5495 44.8973C10.0481 45.9949 9.77181 47.7043 9.77181 50.0525C9.77181 52.4007 10.0481 54.1545 10.5495 55.2521C11.063 56.3917 11.5276 56.9196 12.5449 56.9196C13.435 56.9196 13.9877 56.372 14.5134 55.2521C15.0025 54.1767 15.1541 52.5093 15.1541 50.0747C15.1541 47.6402 15.0172 46.0615 14.5134 44.9417C14.0121 43.8021 13.4228 43.2299 12.4446 43.2299Z" fill="#00A3E3"/>
<path d="M19.2184 58.4735V41.6931H21.0744V56.9368H26.0557V58.471H19.2184V58.4735Z" fill="#00A3E3"/>
<path d="M29.3815 51.8507V58.476H27.5254V52.0061L23.85 41.6956H26.1584L28.9315 50.0747L31.6924 41.6956H32.9102L29.3839 51.8507H29.3815Z" fill="#00A3E3"/>
<path d="M39.8551 52.5512C39.8551 52.5512 40.5447 54.1742 41.5351 58.4735H39.8674C39.7157 57.3981 38.5126 50.9725 36.2164 50.9725L36.1161 50.9503V58.4735H34.2723V41.6931H36.5172C37.3706 41.6931 38.0969 41.7819 38.6618 42.0656C39.2267 42.3493 39.7035 42.7686 40.0801 43.4913C40.4567 44.214 40.645 45.0921 40.645 46.0788C40.645 47.2406 40.4078 48.2494 39.9163 49.0609C39.591 49.6085 39.1509 50.0698 38.6251 50.3781C39.1019 50.9479 39.503 51.7372 39.8551 52.5487V52.5512ZM36.3924 43.3384L36.1161 43.3162V49.458H36.8815C37.0185 49.4358 37.1579 49.4136 37.2948 49.347C37.4464 49.2804 37.5834 49.1941 37.7081 49.1275C37.8964 49.0165 38.0724 48.7773 38.2216 48.5133C38.3463 48.316 38.4466 48.0521 38.5224 47.6796C38.5982 47.3294 38.6471 46.8903 38.6471 46.2983C38.6471 45.2895 38.4955 44.5865 38.2461 44.0167C38.0211 43.5776 37.4562 43.3359 36.39 43.3359L36.3924 43.3384Z" fill="#00A3E3"/>
<path d="M49.627 56.2363C49.3018 56.9393 48.8616 57.4869 48.3236 57.8815C47.7709 58.2762 47.1449 58.4735 46.4406 58.4735C45.6117 58.4735 44.8976 58.2096 44.3083 57.7064C43.7067 57.2032 43.2787 56.5224 43.0171 55.6665C42.753 54.8328 42.6038 53.7154 42.6527 52.3982L42.7163 50.7974V41.6956H44.5601V50.8862C44.5601 51.7199 44.5601 52.4426 44.5724 53.0568C44.5846 53.6488 44.5968 54.0879 44.6359 54.3937C44.7117 55.0079 44.8878 55.5136 45.2375 55.9724C45.5896 56.4336 46.0909 56.6754 46.7439 56.6754C47.2452 56.6754 47.7098 56.5224 48.1109 56.1919C48.5364 55.8638 48.8396 55.4692 49.0132 55.0079C49.2137 54.5245 49.3531 54.0435 49.3898 53.5822C49.4411 53.0346 49.5145 52.1787 49.5145 50.9947V41.6931H50.3802V51.0811C50.3802 52.4402 50.3044 53.449 50.2432 54.1076C50.1674 54.8747 49.918 55.5999 49.6294 56.2363H49.627Z" fill="#00A3E3"/>
<path d="M56.9534 58.1455C56.4008 58.3872 55.6745 58.4735 54.7966 58.4735H52.4392V41.6931H54.5349C56.9803 41.6931 58.4867 42.9215 58.4867 45.8815C58.4867 47.0432 58.247 47.9879 57.758 48.7107C57.5452 49.0165 57.2933 49.2804 56.9925 49.4778C57.4449 49.7195 57.8215 50.0698 58.1223 50.531C58.6872 51.3869 58.9635 52.4624 58.9635 53.7327C58.9635 54.8303 58.7752 55.7948 58.3987 56.6063C58.0221 57.4178 57.533 57.9013 56.9559 58.1405L56.9534 58.1455ZM55.8505 43.5579C55.65 43.3606 55.249 43.2298 54.5961 43.2298C54.508 43.2298 54.3955 43.252 54.2953 43.252V48.8883H54.3466C55.2881 48.8883 55.8383 48.6021 56.1024 48.2075C56.3665 47.8128 56.5279 47.132 56.5279 46.0369C56.5279 45.2697 56.4521 44.7197 56.3519 44.3694C56.2394 44.0192 56.0755 43.7552 55.8505 43.5579ZM54.5716 50.4028H54.2953V56.8085H55.1487C55.8383 56.8085 56.2663 56.6556 56.5279 56.1722C56.8165 55.6665 56.9803 54.8772 56.9803 53.671C56.9803 52.4648 56.792 51.6755 56.479 51.1921C56.1538 50.7086 55.562 50.4028 54.5716 50.4028Z" fill="#00A3E3"/>
<path d="M68.909 50.5779C68.4199 50.9726 67.6423 51.0392 66.625 51.0392H65.9354V54.0213C65.9354 54.6799 65.9232 55.0301 65.9354 55.5555L65.6591 55.0943C65.9354 55.5777 65.9354 58.4711 65.9354 58.4711H64.0916V41.6907H66.1995C67.141 41.6907 67.8795 41.8658 68.4199 42.1298C68.9726 42.4159 69.4225 42.9635 69.7869 43.664C70.1513 44.4311 70.3273 45.3536 70.3273 46.4291C70.3273 47.3713 70.2148 48.1828 69.963 48.9302C69.7111 49.6776 69.3492 50.203 68.909 50.5754V50.5779ZM66.3364 43.3384H65.9354V49.5025H66.2875C66.8133 49.5025 67.1777 49.4803 67.4418 49.3273C67.7059 49.1966 67.9186 48.9549 68.0947 48.4714C68.2707 47.988 68.371 47.3738 68.371 46.6067C68.371 45.3783 68.1949 44.589 67.9064 44.1055C67.6178 43.6221 67.1287 43.3384 66.3389 43.3384H66.3364Z" fill="black"/>
<path d="M72.0709 58.4735V41.6931H73.9269V56.9368H78.9082V58.471H72.0709V58.4735Z" fill="black"/>
<path d="M86.4107 58.4735C85.8703 56.1056 85.6575 55.2719 85.6575 55.2719L85.0437 52.6622H82.1215L80.8425 58.476H79.7641L83.7281 41.6956H84.3541L88.4428 58.476H86.4107V58.4735ZM83.5496 46.3205L82.432 51.1674H84.7038L83.5496 46.3205Z" fill="black"/>
<path d="M92.0302 58.4538C91.101 58.2787 89.9467 57.0503 89.2963 55.1855L89.9223 54.0016C90.7635 56.1303 91.2135 56.7 92.018 56.9196C92.5438 57.0503 92.9595 56.8308 93.2603 56.3942C93.5855 55.9329 93.7493 55.4075 93.786 54.7933C93.8227 54.157 93.7347 53.6316 93.5219 53.1703C93.2969 52.6869 92.8445 52.0949 92.1036 51.3722C91.4384 50.7136 90.9371 50.166 90.585 49.6825C90.2206 49.1793 89.959 48.543 89.7829 47.8178C89.5946 47.0729 89.531 46.3033 89.5824 45.5362C89.6582 44.33 89.959 43.3433 90.4994 42.6182C91.0252 41.9152 91.6659 41.6315 92.3799 41.7622C92.7687 41.8288 93.1453 42.0262 93.4828 42.3098C93.8472 42.6157 94.1846 43.1879 94.6492 44.3053L93.9205 45.3586C93.6833 44.7 93.6197 44.5248 93.5317 44.3719C93.2187 43.7133 92.8299 43.3631 92.3652 43.2743C91.9006 43.1855 91.5998 43.3631 91.4115 43.6689C91.1866 44.0192 91.0741 44.436 91.0472 44.8751C91.0105 45.4227 91.0985 45.9061 91.3235 46.3452C91.5485 46.8287 92.0253 47.4428 92.7541 48.1878C93.4681 48.9327 93.9841 49.5049 94.3093 49.9218C94.6615 50.383 94.9354 50.9972 95.1114 51.7199C95.2997 52.4871 95.3633 53.2986 95.312 54.1989C95.2239 55.6024 94.8718 56.7222 94.2702 57.5338C93.6564 58.3453 92.9032 58.6314 92.0253 58.4563L92.0302 58.4538Z" fill="black"/>
<path d="M102.078 43.2076H100.875V58.4735H99.0192V43.2076H95.2802L95.3046 41.6931H104.639L104.651 43.2076H102.078Z" fill="black"/>
<path d="M106.143 58.4735V41.6931H107.999V58.4735H106.143Z" fill="black"/>
<path d="M111.112 56.2363C110.258 54.7218 109.833 52.7485 109.833 50.3584C109.833 48.7797 110.033 47.2874 110.422 45.8839C110.811 44.4804 111.364 43.405 112.078 42.7045C112.779 42.0237 113.545 41.6956 114.386 41.6956C115.076 41.6956 115.704 41.9373 116.281 42.4405C116.822 42.924 117.235 43.4494 117.585 44.1746L117.621 44.6358L117.032 45.6447C116.707 44.8332 116.567 44.5692 116.404 44.3497C115.863 43.6048 115.249 43.2521 114.572 43.2521C113.743 43.2521 113.105 43.8218 112.616 44.9861C112.139 46.1701 111.875 47.9041 111.875 50.2498C111.875 52.4649 112.151 54.0879 112.677 55.1855C113.217 56.3054 113.868 56.8308 114.66 56.8308C115.073 56.8308 115.513 56.6556 115.978 56.2832C116.318 55.997 116.607 55.5605 117.032 54.4406L117.722 55.6468C116.731 57.6201 115.677 58.476 114.398 58.476C113.119 58.476 111.977 57.7311 111.112 56.2388V56.2363Z" fill="black"/>
<path d="M121.424 58.4538C120.495 58.2787 119.34 57.0503 118.69 55.1855L119.316 54.0016C120.157 56.1303 120.607 56.7 121.412 56.9196C121.937 57.0503 122.353 56.8308 122.654 56.3942C122.979 55.9329 123.143 55.4075 123.18 54.7933C123.216 54.157 123.128 53.6316 122.916 53.1703C122.691 52.6869 122.238 52.0949 121.497 51.3722C120.832 50.7136 120.331 50.166 119.979 49.6825C119.614 49.1793 119.35 48.543 119.177 47.8178C118.988 47.0729 118.925 46.3033 118.976 45.5362C119.052 44.33 119.353 43.3433 119.893 42.6182C120.419 41.9152 121.06 41.6315 121.776 41.7622C122.165 41.8288 122.542 42.0262 122.879 42.3098C123.243 42.6157 123.581 43.1879 124.045 44.3053L123.317 45.3586C123.08 44.7 123.016 44.5248 122.928 44.3719C122.615 43.7133 122.226 43.3631 121.761 43.2743C121.297 43.1855 120.996 43.3631 120.808 43.6689C120.583 44.0192 120.468 44.436 120.443 44.8751C120.407 45.4227 120.495 45.9061 120.72 46.3452C120.945 46.8287 121.422 47.4428 122.15 48.1878C122.864 48.9327 123.38 49.5049 123.706 49.9218C124.058 50.383 124.334 50.9972 124.508 51.7199C124.696 52.4871 124.759 53.2986 124.708 54.1989C124.62 55.6024 124.268 56.7222 123.666 57.5338C123.053 58.3453 122.299 58.6314 121.422 58.4563L121.424 58.4538Z" fill="black"/>
<path d="M134.632 50.5779C134.142 50.9726 133.365 51.0392 132.348 51.0392H131.658V54.0213C131.658 54.6799 131.646 55.0301 131.658 55.5555L131.382 55.0943C131.658 55.5777 131.658 58.4711 131.658 58.4711H129.814V41.6907H131.922C132.864 41.6907 133.602 41.8658 134.142 42.1298C134.695 42.4159 135.145 42.9635 135.509 43.664C135.874 44.4311 136.05 45.3536 136.05 46.4291C136.05 47.3713 135.937 48.1828 135.686 48.9302C135.434 49.6776 135.072 50.203 134.632 50.5754V50.5779ZM132.059 43.3384H131.658V49.5025H132.01C132.538 49.5025 132.9 49.4803 133.164 49.3273C133.428 49.1966 133.641 48.9549 133.817 48.4714C133.993 47.988 134.094 47.3738 134.094 46.6067C134.094 45.3783 133.918 44.589 133.629 44.1055C133.34 43.6221 132.851 43.3384 132.061 43.3384H132.059Z" fill="black"/>
<path d="M144.306 47.2652L141.608 58.4735H140.843L137.72 45.9481L137.632 45.62C137.581 45.4227 137.52 45.1587 137.444 44.8307C137.392 44.6111 137.331 44.3694 137.28 44.1943L136.666 41.6931H138.586L139.439 44.9836L141.723 54.1964L143.491 46.7374C143.616 46.212 143.716 45.7507 143.792 45.3783L144.621 41.6931H145.663L144.308 47.2652H144.306Z" fill="black"/>
<path d="M153.676 43.2076H152.473V58.4735H150.617V43.2076H146.878L146.903 41.6931H156.237L156.249 43.2076H153.676Z" fill="black"/>
<path d="M155.62 58.8485C155.344 58.8485 155.119 58.6733 154.931 58.3231C154.743 57.995 154.655 57.6004 154.655 57.1391C154.655 56.6778 154.755 56.2832 154.931 55.9551C155.119 55.6271 155.356 55.4519 155.62 55.4519C155.885 55.4519 156.122 55.6271 156.31 55.9551C156.498 56.2832 156.586 56.6803 156.586 57.1391C156.586 57.5979 156.498 58.0172 156.298 58.3453C156.11 58.6733 155.885 58.8485 155.62 58.8485Z" fill="black"/>
<path d="M161.805 58.4735V41.6931H163.661V56.9368H168.642V58.471H161.805V58.4735Z" fill="black"/>
<path d="M172.995 43.2076H171.792V58.4735H169.936V43.2076H166.197L166.221 41.6931H175.555L175.568 43.2076H172.995Z" fill="black"/>
<path d="M184.197 56.15C183.833 56.8308 183.395 57.3339 182.906 57.6842C182.429 58.0345 181.977 58.254 181.539 58.3428C181.126 58.4316 180.537 58.4735 179.783 58.4735H177.049V41.671C179.382 41.6932 179.81 41.6932 179.81 41.6932C181.153 41.6932 182.244 42.0434 183.048 42.813C183.838 43.5579 184.427 44.589 184.816 45.8839C185.205 47.1789 185.393 48.649 185.393 50.314C185.393 51.4979 185.293 52.5956 185.08 53.6044C184.867 54.6133 184.579 55.4692 184.202 56.15H184.197ZM182.341 44.7666C182.004 44.1524 181.64 43.7577 181.251 43.5604C180.85 43.3409 180.309 43.2323 179.632 43.2323C179.395 43.2323 179.131 43.2323 178.891 43.2545V56.9418H179.994C180.759 56.9418 181.349 56.7666 181.813 56.4164C182.226 56.1105 182.603 55.4741 182.931 54.4431C183.231 53.4342 183.395 52.1393 183.395 50.494C183.395 49.1991 183.307 48.0817 183.119 47.095C182.931 46.1306 182.667 45.3413 182.341 44.769V44.7666Z" fill="black"/>
<path d="M187.034 58.8485C186.758 58.8485 186.533 58.6733 186.344 58.3231C186.156 57.995 186.068 57.6004 186.068 57.1391C186.068 56.6778 186.168 56.2832 186.344 55.9551C186.533 55.6271 186.77 55.4519 187.034 55.4519C187.298 55.4519 187.535 55.6271 187.724 55.9551C187.912 56.2832 188 56.6803 188 57.1391C188 57.5979 187.912 58.0172 187.711 58.3453C187.523 58.6733 187.298 58.8485 187.034 58.8485Z" fill="black"/>
<path d="M105.253 0.503164C105.23 0.633894 105.213 0.762158 105.186 0.890422C104.773 2.97718 103.961 4.86167 103.042 6.69683C102.455 7.86354 101.738 8.93898 101.056 10.0391C100.369 11.1417 99.5669 12.153 98.6548 13.221C97.3196 14.9871 95.6543 16.6027 93.8789 18.1098C92.3359 19.4196 90.6852 20.6061 88.8047 21.494C87.6016 22.0614 86.3447 22.5201 84.9019 22.5695C83.3099 22.6237 82.163 21.9183 81.5639 20.4507C81.2729 19.7403 81.2093 19.0151 81.2289 18.3047C81.2876 16.3511 81.8207 14.5826 82.5323 12.8831C83.7745 9.92069 85.4545 7.26168 87.4182 4.78274C88.0613 3.97122 88.7289 3.18437 89.4234 2.42465C88.9979 2.19773 88.5969 1.919 88.2325 1.59587C87.0269 2.82918 85.8654 4.09702 84.8432 5.49805C83.5911 7.21482 82.3733 8.94638 81.3414 10.821C80.0062 13.2482 78.896 15.7888 78.3751 18.6204C78.1085 20.0708 77.9765 21.5631 78.4949 23.1393C78.9326 24.4737 79.791 25.4357 81.2093 25.8821C82.0701 26.151 82.8893 26.1313 83.6963 26.0375C85.4301 25.8328 86.9364 25.1792 88.3841 24.4268C90.4945 23.3317 92.3652 21.9306 94.1039 20.389C95.8524 18.8375 97.5079 17.1947 98.9042 15.3497C100.445 13.6083 101.729 11.7016 102.895 9.71596C104.428 7.10382 105.702 4.34861 106.316 1.25301C106.395 0.855889 106.458 0.453832 106.5 0.049307C106.461 0.0345074 106.421 0.0172411 106.382 0.00244141C106.023 0.209637 105.644 0.379833 105.25 0.50563L105.253 0.503164Z" fill="#00A3E3"/>
<path d="M99.7406 9.75297C99.232 6.83003 98.1095 5.48573 97.0507 4.81974C95.7619 4.00823 89.2254 4.32642 89.2254 4.32642L83.601 4.81974L88.2472 20.3594C88.2472 20.3594 94.6053 16.9061 95.828 15.4262C97.0507 13.9462 99.9851 9.50631 99.9851 9.50631L99.7406 9.75297ZM96.0725 14.1929C95.828 15.1795 93.6271 15.9195 93.6271 15.9195L91.1817 9.99963C91.1817 9.99963 93.6271 9.25965 94.8498 9.75297C96.0725 10.2463 95.5834 10.2463 96.317 11.2329C97.0507 12.2196 96.317 13.2062 96.0725 14.1929Z" fill="#00A3E3"/>
<path d="M88.9808 24.0594C90.1228 27.5126 91.2624 30.9659 92.4044 34.4191L98.7624 29.9792L96.0725 22.3327C96.6569 22.1551 99.2148 21.3066 100.719 18.6328C101.849 16.6225 101.765 14.6862 101.697 13.9462C101.379 12.3405 101.208 11.4796 101.208 11.4796V10.493C99.9069 12.7203 98.09 15.3966 95.5834 18.1395C93.2603 20.6826 90.9518 22.6188 88.9808 24.0594Z" fill="black"/>
</g>
<defs>
<clipPath id="clip0_2_3">
<rect width="188" height="70" fill="white"/>
</clipPath>
</defs>
</svg>
