<svg xmlns="http://www.w3.org/2000/svg" width="242" height="21" viewBox="0 0 242 21" fill="none"><path d="M2.59922 6.90039L0.199219 4.90039L0.299219 4.80039L0.399219 4.70039L2.99922 2.80039L5.59922 0.900391H10.7992H15.8992L10.4992 4.90039L5.09922 8.90039L4.99922 9.00039L2.59922 6.90039Z" fill="#0CACD1"></path><path d="M14.8992 10.9004L12.6992 9.00039V8.90039L18.0992 4.90039L23.5992 0.900391H29.2992H34.9992L34.5992 1.00039L34.1992 1.20039L33.5992 1.50039L32.9992 1.80039L32.3992 2.10039L31.8992 2.40039L31.0992 2.90039L30.2992 3.40039L29.1992 4.10039L28.0992 4.80039L27.2992 5.40039L26.3992 6.10039L25.3992 6.80039L24.3992 7.60039L20.8992 10.0004L17.3992 12.5004L17.2992 12.6004L17.0992 12.7004L14.8992 10.9004Z" fill="#0CACD1"></path><path d="M223.398 10.7004V0.900391H228.698H233.998L234.398 1.00039H234.798L235.198 1.10039L235.598 1.20039L235.998 1.40039L236.298 1.50039L236.698 1.70039L236.998 1.80039L237.298 2.00039L237.498 2.20039L237.898 2.50039L238.198 2.70039L238.398 2.90039L238.598 3.20039L238.898 3.60039L239.198 4.00039L239.398 4.40039L239.698 4.90039L239.798 5.20039L239.898 5.60039L239.998 5.90039V6.20039L240.098 6.70039V7.10039V7.70039V8.30039L239.998 8.70039L239.898 9.10039V9.30039L239.798 9.50039L239.698 9.80039L239.598 10.1004L239.398 10.5004L239.198 10.8004L238.998 11.1004L238.798 11.4004L238.598 11.7004L238.298 12.0004L237.998 12.3004L237.798 12.5004L237.398 12.8004L236.998 13.0004L236.598 13.2004L236.098 13.4004L235.898 13.5004L235.698 13.6004V13.7004L238.398 17.1004L241.198 20.5004H238.498H235.698L233.198 17.3004L230.698 14.0004V12.2004V10.5004L231.998 10.4004H233.298L233.498 10.3004H233.798L234.098 10.1004L234.498 9.90039L234.798 9.70039L235.098 9.40039L235.198 9.10039L235.298 8.80039L235.398 8.50039L235.498 8.20039V7.60039V7.10039L235.398 6.70039L235.298 6.40039L235.198 6.10039L234.998 5.80039L234.698 5.50039L234.498 5.20039L234.098 5.00039L233.798 4.90039L233.498 4.80039L233.198 4.70039H230.598H227.998V12.6004L228.098 20.5004H225.798H223.398V10.7004Z" fill="#0CACD1"></path><path d="M200.6 10.7004V0.900391H202.7H204.9L208.2 5.50039L211.5 10.1004L212.7 11.8004L213.8 13.4004V13.5004H213.9H214L213.9 13.0004L213.8 12.6004L213.7 11.9004V11.1004V6.00039L213.6 0.900391H215.9H218.1V10.7004V20.5004H216H213.9L213.8 20.4004L213.7 20.2004L210.4 15.7004L207.1 11.1004L206.3 10.0004L205.6 8.90039L205.2 8.40039L204.9 7.90039H204.8V8.00039V8.30039L204.9 8.60039V9.20039L205 9.90039V10.8004L205.1 11.7004V16.1004V20.5004H202.8H200.6V10.7004Z" fill="#0CACD1"></path><path d="M188.598 20.5004H188.098L187.598 20.4004L187.198 20.3004L186.698 20.2004L186.298 20.1004L185.798 20.0004L185.298 19.8004L184.898 19.6004L184.398 19.4004L183.998 19.2004L183.698 19.0004L183.398 18.8004L183.098 18.6004L182.798 18.4004L182.498 18.2004L182.198 17.9004L181.898 17.6004L181.598 17.2004L181.398 16.9004L181.098 16.5004L180.698 16.0004L180.498 15.4004L180.198 14.8004L180.098 14.5004L179.898 14.1004L179.798 13.6004L179.698 13.2004L179.598 12.7004L179.498 12.2004V11.5004L179.398 10.7004L179.498 10.1004V9.40039L179.598 9.00039V8.60039L179.698 8.20039L179.798 7.90039L179.898 7.60039L179.998 7.30039L180.098 7.10039L180.198 6.80039L180.298 6.40039L180.498 6.10039L180.598 5.80039L180.798 5.40039L181.098 5.10039L181.298 4.70039L181.498 4.40039L181.798 4.10039L182.198 3.70039L182.498 3.30039L182.898 3.00039L183.198 2.80039L183.698 2.50039L184.098 2.20039L184.398 2.00039L184.798 1.90039L185.198 1.70039L185.698 1.50039L186.098 1.40039L186.498 1.20039L186.998 1.10039L187.398 1.00039H187.898L188.498 0.900391H189.498H190.598H190.998L191.398 1.00039L191.898 1.10039L192.298 1.20039L192.898 1.40039L193.398 1.50039L193.898 1.80039L194.498 2.00039L194.898 2.30039L195.398 2.60039L195.698 2.80039L195.998 3.00039L196.298 3.20039L196.498 3.40039V3.50039L195.398 5.00039L194.198 6.50039V6.60039L193.998 6.40039L193.898 6.30039L193.498 6.10039L193.198 5.80039L192.798 5.60039L192.298 5.40039L191.998 5.20039L191.598 5.10039L191.198 5.00039L190.898 4.90039L190.398 4.80039L189.998 4.70039H189.498H188.998L188.598 4.80039H188.198L187.898 4.90039L187.498 5.00039L187.198 5.20039L186.898 5.30039L186.598 5.40039L186.298 5.60039L186.098 5.80039L185.798 6.00039L185.498 6.30039L185.198 6.60039L184.898 7.00039L184.698 7.30039L184.598 7.60039L184.398 8.00039L184.298 8.30039L184.198 8.60039L184.098 9.00039L183.998 9.40039L183.898 10.0004V10.6004V11.2004L183.998 11.8004L184.098 12.3004L184.198 12.7004L184.298 13.0004L184.398 13.3004L184.598 13.7004L184.798 14.0004L184.998 14.4004L185.198 14.7004L185.498 15.0004L185.898 15.4004L186.198 15.6004L186.498 15.8004L186.898 16.0004L187.298 16.2004L187.698 16.3004L188.098 16.5004H188.398L188.798 16.6004H189.398H189.998H190.498L190.998 16.5004L191.398 16.4004L191.798 16.3004L192.198 16.2004L192.498 16.0004L192.898 15.8004L193.298 15.6004L193.498 15.5004L193.698 15.3004L193.998 15.1004L194.298 14.9004H194.398L195.498 16.4004L196.698 17.9004L196.598 18.0004L196.498 18.1004L196.098 18.4004L195.698 18.7004L195.298 18.9004L194.898 19.2004L194.398 19.5004L193.798 19.8004L193.198 20.0004L192.598 20.2004L191.998 20.3004L191.498 20.4004H190.998L190.598 20.5004H189.798H189.098H188.598Z" fill="#0CACD1"></path><path d="M156.199 20.5004L160.399 10.7004L164.599 0.900391H166.999H169.499L173.599 10.7004L177.799 20.5004H175.399H172.899L172.799 20.4004L172.699 20.2004L169.799 12.6004L166.899 5.10039L166.199 6.80039L165.599 8.60039L163.399 14.2004L161.299 19.9004L161.099 20.2004L160.999 20.5004H158.599H156.199Z" fill="#0CACD1"></path><path d="M112.6 10.7004V0.900391H113.7H114.8L120.3 8.50039L125.8 16.1004L126.2 16.6004L126.5 17.0004V8.90039V0.900391H127.6H128.6V10.7004V20.5004H127.6H126.5L121.8 14.1004L117.1 7.70039L116.2 6.40039L115.2 5.10039L115 4.70039L114.8 4.40039H114.7V12.4004V20.5004H113.7H112.6V10.7004Z" fill="black"></path><path d="M88.2988 20.5004L92.6988 10.7004L97.0988 0.900391H98.3988H99.5988L103.999 10.6004L108.399 20.4004V20.5004H107.199H106.099L102.299 11.9004L98.4988 3.20039L98.3988 3.10039V3.00039L98.0988 3.50039L97.8988 4.00039L96.1988 8.00039L94.4988 11.9004L92.5988 16.2004L90.6988 20.5004H89.4988H88.2988Z" fill="black"></path><path d="M70.7988 20.5004V10.7004V0.900391H74.9988H79.1988H79.6988L80.1988 1.00039L80.5988 1.10039L80.9988 1.20039L81.3988 1.30039L81.6988 1.40039L81.9988 1.60039L82.3988 1.80039L82.6988 2.00039L83.0988 2.20039L83.4988 2.70039L83.9988 3.10039L84.1988 3.50039L84.4988 3.90039L84.6988 4.20039L84.7988 4.60039L84.8988 4.90039L84.9988 5.30039L85.0988 5.70039L85.1988 6.10039V6.80039L85.2988 7.50039L85.1988 7.90039V8.30039L85.0988 8.60039L84.9988 8.90039L84.8988 9.30039L84.7988 9.70039L84.5988 10.1004L84.3988 10.4004L84.0988 10.8004L83.8988 11.2004L83.6988 11.4004L83.3988 11.7004L83.0988 11.9004L82.7988 12.1004L82.5988 12.3004L82.2988 12.5004L81.8988 12.7004L81.3988 12.9004L81.0988 13.0004L80.6988 13.1004L80.2988 13.2004L79.7988 13.3004H79.6988L79.5988 13.4004L82.7988 16.9004L85.9988 20.5004H84.5988H83.1988L80.0988 17.0004L76.8988 13.4004V12.4004V11.4004L78.1988 11.3004H79.4988L79.8988 11.2004L80.3988 11.1004L80.6988 11.0004L80.9988 10.8004L81.2988 10.7004L81.4988 10.6004L81.7988 10.2004L82.1988 9.90039L82.3988 9.60039L82.5988 9.30039L82.6988 9.10039L82.7988 8.80039L82.8988 8.60039L82.9988 8.30039V7.90039L83.0988 7.50039V7.10039V6.80039L82.9988 6.40039V6.00039L82.8988 5.70039L82.7988 5.40039L82.6988 5.20039L82.5988 5.00039L82.3988 4.70039L82.1988 4.40039L81.8988 4.10039L81.6988 3.90039L81.3988 3.70039L81.1988 3.50039L80.8988 3.40039L80.6988 3.30039L80.3988 3.20039L80.0988 3.10039L79.7988 3.00039L79.4988 2.90039H76.2988H72.9988V11.7004V20.5004H71.8988H70.8988H70.7988Z" fill="black"></path><path d="M57.8 11.7004V2.90039L54.4 2.80039H51V1.80039V0.900391H58.9H66.8V1.80039V2.80039H63.4L60 2.90039V11.7004V20.5004H58.9H57.8V11.7004Z" fill="black"></path><path d="M30.5996 20.5L35.9996 16.5L41.3996 12.5H41.4996L43.8996 14.5L46.2996 16.5L43.5996 18.5L40.8996 20.5H35.6996H30.5996Z" fill="black"></path><path d="M11.5 20.5002L12.1 20.2002L12.7 20.0002L13.2 19.7002L13.7 19.5002L14.3 19.1002L15 18.8002L15.7 18.3002L16.4 17.8002L17 17.5002L17.6 17.1002L18.2 16.7002L18.9 16.2002L19.5 15.7002L20.2 15.3002L21 14.6002L21.9 14.0002L25.6 11.3002L29.4 8.7002H29.5L31.7 10.6002L33.9 12.4002V12.5002H33.8L28.3 16.5002L22.9 20.5002H17.2H11.5Z" fill="black"></path><path d="M140.499 20.9H140.199L139.799 20.8H139.299L138.899 20.7L138.499 20.6L137.999 20.5L137.599 20.4L137.199 20.3L136.699 20.1L136.199 19.9L135.699 19.7L135.399 19.5L134.999 19.3L134.699 19.1L134.499 19L134.099 18.7L133.699 18.4L134.199 17.6L134.699 16.8H134.799V16.7L135.099 16.9L135.399 17.2L135.799 17.4L136.199 17.6L136.599 17.8L136.999 18L137.399 18.1L137.799 18.3L138.199 18.4L138.699 18.5L139.099 18.6L139.499 18.7L139.899 18.8H140.299H141.099H141.899H142.199L142.499 18.7H142.799L143.099 18.6L143.399 18.5L143.799 18.4L144.099 18.2L144.399 18.1L144.599 17.9L144.899 17.7L145.199 17.5L145.399 17.3L145.599 17.1L145.799 16.8L145.899 16.6L145.999 16.4L146.099 16.1V15.8L146.199 15.3V14.7L146.099 14.4L145.999 14.1L145.899 13.7L145.699 13.4L145.499 13.1L145.299 12.9L144.999 12.7L144.799 12.5L144.399 12.3L143.999 12.1L143.599 12L143.199 11.8L142.599 11.7L142.099 11.5L140.999 11.3L139.899 11.1L139.499 11L139.099 10.9L138.599 10.7L138.099 10.6L137.699 10.4L137.299 10.2L136.999 10.1L136.599 9.9L136.199 9.6L135.799 9.3L135.499 9.1L135.199 8.8L134.999 8.5L134.899 8.3L134.799 8.1L134.599 7.8V7.7L134.499 7.5V7.3L134.399 7.1L134.299 6.7V6.4V5.9V5.5V5.1L134.399 4.7L134.499 4.4L134.599 4L134.799 3.7L134.999 3.3L135.199 3L135.499 2.7L135.799 2.3L136.199 2L136.599 1.7L136.999 1.5L137.399 1.3L137.799 1.1L138.299 0.9L138.799 0.8L139.299 0.7L139.799 0.6L140.299 0.5H140.899H141.599H142.399L142.799 0.6L143.299 0.7H143.699L144.099 0.8L144.499 0.9L144.799 1L145.199 1.2L145.699 1.4L146.099 1.6L146.599 1.9L147.099 2.1L147.499 2.4L146.999 3.2L146.399 3.9V4H146.299L145.999 3.8L145.799 3.7L145.299 3.4L144.899 3.2L144.499 3.1L144.099 2.9L143.699 2.8L143.399 2.7L142.899 2.6L142.399 2.5H141.799H141.299H140.699H140.199L139.799 2.6L139.399 2.7L138.999 2.8L138.599 3L138.299 3.1L137.999 3.3L137.799 3.4L137.599 3.6L137.299 3.8L136.999 4.1L136.899 4.3L136.699 4.5L136.599 4.8L136.499 5.2V5.5L136.399 5.8L136.499 6.2V6.5L136.599 6.8L136.699 7L136.799 7.2L136.899 7.3L137.099 7.6L137.299 7.8L137.599 8L137.799 8.2L138.299 8.4L138.699 8.5L139.199 8.7L139.699 8.9L140.199 9L140.799 9.2L141.599 9.3L142.399 9.5L142.899 9.6L143.399 9.8L143.999 9.9L144.499 10.1L144.999 10.3L145.499 10.5L145.899 10.8L146.299 11L146.499 11.2L146.799 11.4L147.099 11.7L147.399 12L147.599 12.3L147.799 12.6L147.999 12.9L148.099 13.2L148.199 13.6L148.299 14V14.4L148.399 14.9L148.299 15.4V15.9L148.199 16.3V16.7L148.099 17L147.999 17.2L147.799 17.5L147.699 17.9L147.499 18.2L147.299 18.5L146.799 18.9L146.399 19.4L145.999 19.6L145.599 19.8L145.199 20L144.799 20.2L144.399 20.4L143.999 20.5L143.499 20.6L142.999 20.7L142.499 20.8L141.999 20.9H141.399H140.799H140.499Z" fill="black"></path></svg>